<svg width="335" height="43" viewBox="0 0 335 43" fill="none" xmlns="http://www.w3.org/2000/svg">
<path d="M17.808 31.212H11.544V42H0.06V1.4H18.62C22.2933 1.4 25.4833 2.01866 28.19 3.256C30.8967 4.45466 32.9847 6.19467 34.454 8.476C35.9233 10.7187 36.658 13.3673 36.658 16.422C36.658 19.3607 35.962 21.932 34.57 24.136C33.2167 26.3013 31.264 28.0027 28.712 29.24L37.47 42H25.174L17.808 31.212ZM25.058 16.422C25.058 14.5273 24.4587 13.058 23.26 12.014C22.0613 10.97 20.2827 10.448 17.924 10.448H11.544V22.338H17.924C20.2827 22.338 22.0613 21.8353 23.26 20.83C24.4587 19.786 25.058 18.3167 25.058 16.422ZM63.4676 42.812C59.1756 42.812 55.3089 41.9033 51.8676 40.086C48.4649 38.2687 45.7776 35.7553 43.8056 32.546C41.8723 29.3367 40.9056 25.7213 40.9056 21.7C40.9056 17.6787 41.8723 14.0633 43.8056 10.854C45.7776 7.64467 48.4649 5.13133 51.8676 3.314C55.3089 1.49666 59.1756 0.587997 63.4676 0.587997C67.7596 0.587997 71.6069 1.49666 75.0096 3.314C78.4509 5.13133 81.1383 7.64467 83.0716 10.854C85.0436 14.0633 86.0296 17.6787 86.0296 21.7C86.0296 25.7213 85.0436 29.3367 83.0716 32.546C81.1383 35.7553 78.4509 38.2687 75.0096 40.086C71.6069 41.9033 67.7596 42.812 63.4676 42.812ZM63.4676 33.3C65.5169 33.3 67.3729 32.8167 69.0356 31.85C70.6983 30.8833 72.0129 29.53 72.9796 27.79C73.9463 26.0113 74.4296 23.9813 74.4296 21.7C74.4296 19.4187 73.9463 17.408 72.9796 15.668C72.0129 13.8893 70.6983 12.5167 69.0356 11.55C67.3729 10.5833 65.5169 10.1 63.4676 10.1C61.4183 10.1 59.5623 10.5833 57.8996 11.55C56.2369 12.5167 54.9223 13.8893 53.9556 15.668C52.9889 17.408 52.5056 19.4187 52.5056 21.7C52.5056 23.9813 52.9889 26.0113 53.9556 27.79C54.9223 29.53 56.2369 30.8833 57.8996 31.85C59.5623 32.8167 61.4183 33.3 63.4676 33.3ZM106.312 42.812C103.026 42.812 99.8357 42.406 96.7424 41.594C93.649 40.782 91.1357 39.6993 89.2024 38.346L92.9724 29.878C94.7897 31.0767 96.897 32.0433 99.2944 32.778C101.692 33.5127 104.05 33.88 106.37 33.88C110.778 33.88 112.982 32.778 112.982 30.574C112.982 29.414 112.344 28.5633 111.068 28.022C109.831 27.442 107.82 26.8427 105.036 26.224C101.982 25.5667 99.4297 24.8707 97.3804 24.136C95.331 23.3627 93.5717 22.1447 92.1024 20.482C90.633 18.8193 89.8984 16.5767 89.8984 13.754C89.8984 11.2793 90.575 9.056 91.9284 7.084C93.2817 5.07333 95.2924 3.488 97.9604 2.328C100.667 1.168 103.973 0.587997 107.878 0.587997C110.546 0.587997 113.176 0.897331 115.766 1.516C118.357 2.096 120.638 2.966 122.61 4.126L119.072 12.652C115.206 10.564 111.455 9.52 107.82 9.52C105.539 9.52 103.876 9.868 102.832 10.564C101.788 11.2213 101.266 12.0913 101.266 13.174C101.266 14.2567 101.885 15.0687 103.122 15.61C104.36 16.1513 106.351 16.712 109.096 17.292C112.19 17.9493 114.742 18.6647 116.752 19.438C118.802 20.1727 120.561 21.3713 122.03 23.034C123.538 24.658 124.292 26.8813 124.292 29.704C124.292 32.14 123.616 34.344 122.262 36.316C120.909 38.288 118.879 39.8733 116.172 41.072C113.466 42.232 110.179 42.812 106.312 42.812ZM145.257 27.268L140.965 31.85V42H129.597V1.4H140.965V18.278L156.683 1.4H169.327L152.739 19.38L170.197 42H156.857L145.257 27.268ZM198.487 34.112H181.319L178.129 42H166.413L184.335 1.4H195.645L213.625 42H201.677L198.487 34.112ZM195.123 25.644L189.903 12.652L184.683 25.644H195.123ZM231.148 42.812C227.862 42.812 224.672 42.406 221.578 41.594C218.485 40.782 215.972 39.6993 214.038 38.346L217.808 29.878C219.626 31.0767 221.733 32.0433 224.13 32.778C226.528 33.5127 228.886 33.88 231.206 33.88C235.614 33.88 237.818 32.778 237.818 30.574C237.818 29.414 237.18 28.5633 235.904 28.022C234.667 27.442 232.656 26.8427 229.872 26.224C226.818 25.5667 224.266 24.8707 222.216 24.136C220.167 23.3627 218.408 22.1447 216.938 20.482C215.469 18.8193 214.734 16.5767 214.734 13.754C214.734 11.2793 215.411 9.056 216.764 7.084C218.118 5.07333 220.128 3.488 222.796 2.328C225.503 1.168 228.809 0.587997 232.714 0.587997C235.382 0.587997 238.012 0.897331 240.602 1.516C243.193 2.096 245.474 2.966 247.446 4.126L243.908 12.652C240.042 10.564 236.291 9.52 232.656 9.52C230.375 9.52 228.712 9.868 227.668 10.564C226.624 11.2213 226.102 12.0913 226.102 13.174C226.102 14.2567 226.721 15.0687 227.958 15.61C229.196 16.1513 231.187 16.712 233.932 17.292C237.026 17.9493 239.578 18.6647 241.588 19.438C243.638 20.1727 245.397 21.3713 246.866 23.034C248.374 24.658 249.128 26.8813 249.128 29.704C249.128 32.14 248.452 34.344 247.098 36.316C245.745 38.288 243.715 39.8733 241.008 41.072C238.302 42.232 235.015 42.812 231.148 42.812ZM268.701 42.812C265.414 42.812 262.224 42.406 259.131 41.594C256.038 40.782 253.524 39.6993 251.591 38.346L255.361 29.878C257.178 31.0767 259.286 32.0433 261.683 32.778C264.08 33.5127 266.439 33.88 268.759 33.88C273.167 33.88 275.371 32.778 275.371 30.574C275.371 29.414 274.733 28.5633 273.457 28.022C272.22 27.442 270.209 26.8427 267.425 26.224C264.37 25.5667 261.818 24.8707 259.769 24.136C257.72 23.3627 255.96 22.1447 254.491 20.482C253.022 18.8193 252.287 16.5767 252.287 13.754C252.287 11.2793 252.964 9.056 254.317 7.084C255.67 5.07333 257.681 3.488 260.349 2.328C263.056 1.168 266.362 0.587997 270.267 0.587997C272.935 0.587997 275.564 0.897331 278.155 1.516C280.746 2.096 283.027 2.966 284.999 4.126L281.461 12.652C277.594 10.564 273.844 9.52 270.209 9.52C267.928 9.52 266.265 9.868 265.221 10.564C264.177 11.2213 263.655 12.0913 263.655 13.174C263.655 14.2567 264.274 15.0687 265.511 15.61C266.748 16.1513 268.74 16.712 271.485 17.292C274.578 17.9493 277.13 18.6647 279.141 19.438C281.19 20.1727 282.95 21.3713 284.419 23.034C285.927 24.658 286.681 26.8813 286.681 29.704C286.681 32.14 286.004 34.344 284.651 36.316C283.298 38.288 281.268 39.8733 278.561 41.072C275.854 42.232 272.568 42.812 268.701 42.812ZM319.188 34.112H302.02L298.83 42H287.114L305.036 1.4H316.346L334.326 42H322.378L319.188 34.112ZM315.824 25.644L310.604 12.652L305.384 25.644H315.824Z" fill="#377DFF"/>
</svg>
